<svg width="52" height="52" viewBox="0 0 52 52" fill="none" xmlns="http://www.w3.org/2000/svg">
<rect width="52" height="52" rx="26" fill="#99D85C"/>
<path d="M19.456 16.2V33H15.856V16.2H19.456ZM15.928 31.248V33H14.008V32.76C14.008 32.76 14.056 32.76 14.152 32.76C14.264 32.76 14.32 32.76 14.32 32.76C14.736 32.76 15.088 32.616 15.376 32.328C15.68 32.024 15.84 31.664 15.856 31.248H15.928ZM15.928 17.952H15.856C15.84 17.536 15.68 17.184 15.376 16.896C15.088 16.592 14.736 16.44 14.32 16.44C14.32 16.44 14.264 16.44 14.152 16.44C14.056 16.44 14.008 16.44 14.008 16.44V16.2H15.928V17.952ZM19.384 31.248H19.456C19.472 31.664 19.624 32.024 19.912 32.328C20.216 32.616 20.576 32.76 20.992 32.76C20.992 32.76 21.04 32.76 21.136 32.76C21.232 32.76 21.288 32.76 21.304 32.76V33H19.384V31.248ZM19.384 17.952V16.2H21.304V16.44C21.288 16.44 21.232 16.44 21.136 16.44C21.04 16.44 20.992 16.44 20.992 16.44C20.576 16.44 20.216 16.592 19.912 16.896C19.624 17.184 19.472 17.536 19.456 17.952H19.384ZM32.0013 16.2C33.8893 16.2 35.5213 16.544 36.8973 17.232C38.2733 17.904 39.3293 18.872 40.0653 20.136C40.8173 21.384 41.1933 22.872 41.1933 24.6C41.1933 26.328 40.8173 27.824 40.0653 29.088C39.3293 30.336 38.2733 31.304 36.8973 31.992C35.5213 32.664 33.8893 33 32.0013 33H26.2893L26.2653 31.992C26.7293 31.992 27.2093 31.992 27.7053 31.992C28.2173 31.992 28.7133 31.992 29.1933 31.992C29.6733 31.992 30.0973 31.992 30.4653 31.992C30.8493 31.992 31.1533 31.992 31.3773 31.992C31.6013 31.992 31.7133 31.992 31.7133 31.992C32.8653 31.992 33.8573 31.696 34.6893 31.104C35.5213 30.496 36.1613 29.64 36.6093 28.536C37.0573 27.432 37.2812 26.12 37.2812 24.6C37.2812 23.08 37.0573 21.768 36.6093 20.664C36.1613 19.56 35.5213 18.712 34.6893 18.12C33.8573 17.512 32.8653 17.208 31.7133 17.208C31.7133 17.208 31.5933 17.208 31.3533 17.208C31.1293 17.208 30.8173 17.208 30.4173 17.208C30.0173 17.208 29.5693 17.208 29.0733 17.208C28.5773 17.208 28.0653 17.208 27.5373 17.208C27.0093 17.208 26.5053 17.208 26.0253 17.208V16.2H32.0013ZM28.7373 16.2V33H25.1373V16.2H28.7373ZM25.2093 31.248V33H23.2893V32.76C23.2893 32.76 23.3373 32.76 23.4333 32.76C23.5453 32.76 23.6013 32.76 23.6013 32.76C24.0173 32.76 24.3693 32.616 24.6573 32.328C24.9613 32.024 25.1213 31.664 25.1373 31.248H25.2093ZM25.2093 17.952H25.1373C25.1373 17.536 24.9853 17.184 24.6813 16.896C24.3773 16.592 24.0173 16.44 23.6013 16.44C23.6013 16.44 23.5533 16.44 23.4573 16.44C23.3613 16.44 23.3133 16.44 23.3133 16.44L23.2893 16.2H25.2093V17.952Z" fill="#1C3700"/>
</svg>
