<svg width="48" height="49" viewBox="0 0 48 49" fill="none" xmlns="http://www.w3.org/2000/svg">
<path d="M42 20.1775C42 34.1775 24 46.1775 24 46.1775C24 46.1775 6 34.1775 6 20.1775C6 15.4036 7.89642 10.8252 11.2721 7.44957C14.6477 4.07391 19.2261 2.17749 24 2.17749C28.7739 2.17749 33.3523 4.07391 36.7279 7.44957C40.1036 10.8252 42 15.4036 42 20.1775Z" stroke="#3A6A00" stroke-width="2" stroke-linecap="round" stroke-linejoin="round"/>
<path d="M24 26.1775C27.3137 26.1775 30 23.4912 30 20.1775C30 16.8638 27.3137 14.1775 24 14.1775C20.6863 14.1775 18 16.8638 18 20.1775C18 23.4912 20.6863 26.1775 24 26.1775Z" stroke="#3A6A00" stroke-width="2" stroke-linecap="round" stroke-linejoin="round"/>
</svg>
