<svg width="48" height="49" viewBox="0 0 48 49" fill="none" xmlns="http://www.w3.org/2000/svg">
<path d="M24.0001 5.42749C20.7177 5.42714 17.4928 6.28844 14.6478 7.92527C11.8027 9.5621 9.43716 11.9171 7.78766 14.7549C6.13816 17.5926 5.2625 20.8136 5.24822 24.0959C5.23395 27.3782 6.08155 30.6068 7.7063 33.4587L6.0188 39.3837C5.91064 39.7685 5.90689 40.1751 6.00796 40.5617C6.10902 40.9484 6.31124 41.3011 6.59383 41.5837C6.87642 41.8663 7.22918 42.0685 7.61583 42.1696C8.00248 42.2707 8.40908 42.2669 8.7938 42.1587L14.7188 40.4712C17.2138 41.8919 20.0018 42.7206 22.8677 42.8935C25.7336 43.0663 28.601 42.5787 31.2487 41.4682C33.8963 40.3577 36.2536 38.654 38.1388 36.4884C40.0239 34.3229 41.3865 31.7533 42.1216 28.9779C42.8567 26.2024 42.9445 23.2952 42.3784 20.4805C41.8123 17.6657 40.6074 15.0185 38.8564 12.7431C37.1055 10.4676 34.8554 8.62466 32.2796 7.35629C29.7038 6.08792 26.8712 5.42803 24.0001 5.42749ZM24.0001 41.4275C20.8976 41.4347 17.8516 40.5986 15.1876 39.0087C15.0713 38.9495 14.943 38.9175 14.8126 38.915H14.6063L8.3813 40.6962C8.2541 40.7304 8.12016 40.7304 7.99294 40.6963C7.86573 40.6623 7.74972 40.5953 7.6566 40.5022C7.56347 40.4091 7.49651 40.2931 7.46245 40.1659C7.42839 40.0386 7.42842 39.9047 7.46255 39.7775L9.2438 33.5525C9.29654 33.3564 9.26957 33.1475 9.1688 32.9712C7.22854 29.6969 6.42567 25.8727 6.88526 22.0945C7.34485 18.3163 9.04111 14.7961 11.7098 12.0824C14.3785 9.36869 17.8697 7.61375 21.6397 7.09098C25.4097 6.56821 29.2468 7.30696 32.5531 9.19214C35.8595 11.0773 38.4496 14.0031 39.9199 17.5137C41.3902 21.0243 41.6582 24.9226 40.6821 28.6014C39.706 32.2802 37.5406 35.5329 34.5233 37.8527C31.506 40.1726 27.8061 41.4295 24.0001 41.4275ZM33.4688 27.6462L29.6438 25.4712C29.295 25.2715 28.8994 25.1679 28.4975 25.1712C28.0956 25.1745 27.7018 25.2845 27.3563 25.49L24.7688 27.0462C23.2102 26.2379 21.9397 24.9674 21.1313 23.4087L22.6876 20.8212C22.893 20.4758 23.003 20.082 23.0063 19.68C23.0096 19.2781 22.9061 18.8825 22.7063 18.5337L20.5313 14.7087C20.3507 14.3959 20.0911 14.136 19.7785 13.955C19.4659 13.7741 19.1113 13.6784 18.7501 13.6775C17.162 13.6775 15.6387 14.307 14.514 15.4282C13.3893 16.5494 12.755 18.0707 12.7501 19.6587C12.7476 21.7286 13.1532 23.7787 13.9436 25.6918C14.734 27.6048 15.8937 29.3433 17.3565 30.8078C18.8193 32.2723 20.5564 33.4341 22.4685 34.2268C24.3806 35.0195 26.4302 35.4275 28.5001 35.4275H28.5188C30.1069 35.4225 31.6282 34.7882 32.7493 33.6635C33.8705 32.5388 34.5001 31.0155 34.5 29.4275C34.4992 29.0663 34.4035 28.7116 34.2225 28.399C34.0415 28.0864 33.7816 27.8268 33.4688 27.6462ZM28.5188 33.9275H28.5001C24.719 33.9225 21.0945 32.417 18.4226 29.7416C15.7508 27.0663 14.25 23.4398 14.2501 19.6587C14.255 18.4685 14.7313 17.3287 15.5747 16.4889C16.4181 15.649 17.5598 15.1775 18.7501 15.1775C18.8461 15.1788 18.94 15.2055 19.0223 15.2549C19.1047 15.3043 19.1725 15.3746 19.2188 15.4587L21.4126 19.2837C21.4766 19.4017 21.5101 19.5339 21.5101 19.6681C21.5101 19.8024 21.4766 19.9345 21.4126 20.0525L19.6501 22.9775C19.5851 23.0803 19.5476 23.198 19.541 23.3195C19.5344 23.4409 19.5591 23.562 19.6126 23.6712C20.589 25.847 22.3305 27.5885 24.5063 28.565C24.6155 28.6185 24.7366 28.6431 24.8581 28.6365C24.9795 28.63 25.0972 28.5924 25.2001 28.5275L28.1251 26.765C28.2431 26.701 28.3752 26.6675 28.5094 26.6675C28.6437 26.6675 28.7758 26.701 28.8938 26.765L32.7188 28.9587C32.8029 29.0051 32.8732 29.0729 32.9226 29.1552C32.972 29.2375 32.9987 29.3315 33 29.4275C33.0001 30.6177 32.5285 31.7595 31.6887 32.6029C30.8488 33.4462 29.709 33.9225 28.5188 33.9275Z" fill="#3A6A00"/>
</svg>
