<svg width="252" height="18" viewBox="0 0 252 18" fill="none" xmlns="http://www.w3.org/2000/svg">
<path d="M5.456 0.199999V17H1.856V0.199999H5.456ZM1.928 15.248V17H0.00800008V16.76C0.00800008 16.76 0.0560001 16.76 0.152 16.76C0.264 16.76 0.32 16.76 0.32 16.76C0.736 16.76 1.088 16.616 1.376 16.328C1.68 16.024 1.84 15.664 1.856 15.248H1.928ZM1.928 1.952H1.856C1.84 1.536 1.68 1.184 1.376 0.896C1.088 0.591999 0.736 0.439999 0.32 0.439999C0.32 0.439999 0.264 0.439999 0.152 0.439999C0.0560001 0.439999 0.00800008 0.439999 0.00800008 0.439999V0.199999H1.928V1.952ZM5.384 15.248H5.456C5.472 15.664 5.624 16.024 5.912 16.328C6.216 16.616 6.576 16.76 6.992 16.76C6.992 16.76 7.04 16.76 7.136 16.76C7.232 16.76 7.288 16.76 7.304 16.76V17H5.384V15.248ZM5.384 1.952V0.199999H7.304V0.439999C7.288 0.439999 7.232 0.439999 7.136 0.439999C7.04 0.439999 6.992 0.439999 6.992 0.439999C6.576 0.439999 6.216 0.591999 5.912 0.896C5.624 1.184 5.472 1.536 5.456 1.952H5.384ZM10.2543 2.264L24.3423 14.648L24.5823 17.312L10.5183 4.928L10.2543 2.264ZM10.3503 15.536V17H8.57431V16.76C8.57431 16.76 8.63831 16.76 8.76631 16.76C8.89431 16.76 8.95831 16.76 8.95831 16.76C9.32631 16.76 9.63831 16.648 9.89431 16.424C10.1503 16.184 10.2783 15.888 10.2783 15.536H10.3503ZM13.5663 15.536C13.5823 15.888 13.7183 16.184 13.9743 16.424C14.2303 16.648 14.5343 16.76 14.8863 16.76C14.8863 16.76 14.9503 16.76 15.0783 16.76C15.2223 16.76 15.2943 16.76 15.2943 16.76V17H13.5183V15.536H13.5663ZM10.2543 2.264L13.5663 5.864V17H10.2783V5C10.2783 4.184 10.2383 3.528 10.1583 3.032C10.0783 2.52 10.0383 2.264 10.0383 2.264H10.2543ZM24.5583 2.6V14.504C24.5583 15.064 24.5743 15.56 24.6063 15.992C24.6543 16.408 24.6943 16.736 24.7263 16.976C24.7743 17.2 24.7983 17.312 24.7983 17.312H24.5823L21.2703 13.496V2.6H24.5583ZM24.4863 4.064V2.6H26.2863V2.84C26.2863 2.84 26.2143 2.84 26.0703 2.84C25.9423 2.84 25.8783 2.84 25.8783 2.84C25.5263 2.84 25.2143 2.96 24.9423 3.2C24.6863 3.424 24.5583 3.712 24.5583 4.064H24.4863ZM21.2703 4.064C21.2543 3.712 21.1183 3.424 20.8623 3.2C20.6223 2.96 20.3183 2.84 19.9503 2.84C19.9503 2.84 19.8783 2.84 19.7343 2.84C19.6063 2.84 19.5423 2.84 19.5423 2.84V2.6H21.3183V4.064H21.2703ZM35.7014 2.672V17H32.2214V2.672H35.7014ZM40.9334 2.576V3.536H27.0134V2.576H40.9334ZM40.9334 3.464V6.008H40.6694V5.792C40.6854 5.104 40.4934 4.56 40.0934 4.16C39.7094 3.76 39.1734 3.552 38.4854 3.536V3.464H40.9334ZM40.9334 2.216V2.816L38.3894 2.576C38.6934 2.576 39.0214 2.56 39.3734 2.528C39.7254 2.48 40.0454 2.432 40.3334 2.384C40.6214 2.32 40.8214 2.264 40.9334 2.216ZM32.2694 15.488V17H30.6614V16.76C30.6614 16.76 30.7014 16.76 30.7814 16.76C30.8774 16.76 30.9254 16.76 30.9254 16.76C31.2774 16.76 31.5734 16.64 31.8134 16.4C32.0694 16.144 32.2054 15.84 32.2214 15.488H32.2694ZM35.6294 15.488H35.7014C35.7014 15.84 35.8294 16.144 36.0854 16.4C36.3414 16.64 36.6534 16.76 37.0214 16.76C37.0214 16.76 37.0614 16.76 37.1414 16.76C37.2374 16.76 37.2854 16.76 37.2854 16.76V17H35.6294V15.488ZM29.4614 3.464V3.536C28.7574 3.552 28.2134 3.76 27.8294 4.16C27.4614 4.56 27.2774 5.104 27.2774 5.792V6.008H27.0134V3.464H29.4614ZM27.0134 2.216C27.1574 2.248 27.3654 2.296 27.6374 2.36C27.9254 2.424 28.2374 2.48 28.5734 2.528C28.9254 2.56 29.2454 2.576 29.5334 2.576L27.0134 2.816V2.216ZM47.2316 2.6V17H43.7756V2.6H47.2316ZM52.8476 16.04L53.3996 17H47.1836V16.04H52.8476ZM52.0316 9.392V10.352H47.1836V9.392H52.0316ZM53.1116 2.6V3.56H47.1836V2.6H53.1116ZM54.3836 12.584L53.4716 17H49.3196L50.0636 16.04C50.7516 16.04 51.3596 15.904 51.8876 15.632C52.4316 15.344 52.8956 14.944 53.2796 14.432C53.6636 13.904 53.9596 13.288 54.1676 12.584H54.3836ZM52.0316 10.304V12.416H51.7916V12.224C51.7916 11.696 51.6236 11.256 51.2876 10.904C50.9676 10.552 50.5276 10.368 49.9676 10.352V10.304H52.0316ZM52.0316 7.328V9.44H49.9676V9.392C50.5276 9.376 50.9676 9.192 51.2876 8.84C51.6236 8.472 51.7916 8.024 51.7916 7.496V7.328H52.0316ZM53.1116 3.512V6.056H52.8716V5.84C52.8716 5.136 52.6796 4.584 52.2956 4.184C51.9276 3.784 51.3916 3.576 50.6876 3.56V3.512H53.1116ZM53.1116 2.24V2.816L50.5916 2.6C51.0556 2.6 51.5436 2.56 52.0556 2.48C52.5676 2.384 52.9196 2.304 53.1116 2.24ZM43.8236 15.488L43.9436 17H42.1676V16.76C42.1676 16.76 42.2156 16.76 42.3116 16.76C42.4076 16.76 42.4636 16.76 42.4796 16.76C42.8316 16.76 43.1276 16.64 43.3676 16.4C43.6236 16.144 43.7596 15.84 43.7756 15.488H43.8236ZM43.8236 4.112H43.7756C43.7596 3.744 43.6236 3.44 43.3676 3.2C43.1276 2.96 42.8316 2.84 42.4796 2.84C42.4636 2.84 42.4076 2.84 42.3116 2.84C42.2156 2.84 42.1676 2.84 42.1676 2.84V2.6H43.9436L43.8236 4.112ZM60.5887 2.6H63.1807C63.8367 2.6 64.4767 2.672 65.1007 2.816C65.7247 2.944 66.2847 3.16 66.7807 3.464C67.2767 3.752 67.6687 4.152 67.9567 4.664C68.2607 5.16 68.4127 5.784 68.4127 6.536C68.4127 7.096 68.2927 7.656 68.0527 8.216C67.8287 8.76 67.4687 9.232 66.9727 9.632C66.4927 10.032 65.8607 10.296 65.0767 10.424C65.5407 10.568 65.9807 10.848 66.3967 11.264C66.8287 11.68 67.1647 12.072 67.4047 12.44C67.4687 12.568 67.5807 12.776 67.7407 13.064C67.9007 13.336 68.1007 13.656 68.3407 14.024C68.5967 14.376 68.8607 14.744 69.1327 15.128C69.4527 15.56 69.7327 15.896 69.9727 16.136C70.2127 16.36 70.4607 16.52 70.7167 16.616C70.9727 16.712 71.2687 16.76 71.6047 16.76V17H69.5887C68.7247 17 67.9887 16.936 67.3807 16.808C66.7887 16.68 66.2687 16.448 65.8207 16.112C65.3887 15.76 64.9887 15.288 64.6207 14.696C64.4767 14.488 64.3247 14.24 64.1647 13.952C64.0047 13.648 63.8447 13.344 63.6847 13.04C63.5247 12.736 63.3807 12.44 63.2527 12.152C63.1407 11.864 63.0607 11.624 63.0127 11.432C62.8047 10.92 62.5647 10.552 62.2927 10.328C62.0367 10.088 61.7967 9.968 61.5727 9.968V9.752C61.5727 9.752 61.6287 9.752 61.7407 9.752C61.8527 9.752 61.9967 9.752 62.1727 9.752C62.5087 9.752 62.8367 9.696 63.1567 9.584C63.4927 9.456 63.7967 9.224 64.0687 8.888C64.3407 8.536 64.5407 8.024 64.6687 7.352C64.7007 7.256 64.7247 7.12 64.7407 6.944C64.7727 6.768 64.7807 6.568 64.7647 6.344C64.7327 5.752 64.6207 5.28 64.4287 4.928C64.2527 4.56 64.0287 4.288 63.7567 4.112C63.4847 3.92 63.2047 3.792 62.9167 3.728C62.6447 3.648 62.4047 3.608 62.1967 3.608C61.8927 3.592 61.6127 3.592 61.3567 3.608C61.1167 3.608 60.9327 3.6 60.8047 3.584C60.7887 3.584 60.7647 3.504 60.7327 3.344C60.7007 3.168 60.6687 3 60.6367 2.84C60.6047 2.68 60.5887 2.6 60.5887 2.6ZM60.8287 2.6V17H57.3487V2.6H60.8287ZM57.4207 15.488L57.5167 17H55.7887V16.76C55.8047 16.76 55.8447 16.76 55.9087 16.76C55.9887 16.76 56.0447 16.76 56.0767 16.76C56.4287 16.76 56.7247 16.64 56.9647 16.4C57.2207 16.144 57.3567 15.84 57.3727 15.488H57.4207ZM57.4207 4.088H57.3727C57.3567 3.72 57.2207 3.424 56.9647 3.2C56.7247 2.96 56.4367 2.84 56.1007 2.84C56.0527 2.84 55.9887 2.84 55.9087 2.84C55.8447 2.84 55.8047 2.84 55.7887 2.84V2.6H57.5167L57.4207 4.088ZM60.7807 15.488H60.8287C60.8287 15.888 60.9647 16.2 61.2367 16.424C61.5247 16.648 61.8287 16.76 62.1487 16.76C62.1487 16.76 62.1807 16.76 62.2447 16.76C62.3087 16.76 62.3567 16.76 62.3887 16.76V17H60.6607L60.7807 15.488ZM76.5536 2.6V17H73.0976V2.6H76.5536ZM73.1696 15.488V17H71.4176V16.76C71.4176 16.76 71.4656 16.76 71.5616 16.76C71.6576 16.76 71.7136 16.76 71.7296 16.76C72.0976 16.76 72.4176 16.64 72.6896 16.4C72.9616 16.144 73.0976 15.84 73.0976 15.488H73.1696ZM76.5056 15.488H76.5536C76.5696 15.84 76.7056 16.144 76.9616 16.4C77.2336 16.64 77.5616 16.76 77.9456 16.76C77.9456 16.76 77.9856 16.76 78.0656 16.76C78.1616 16.76 78.2176 16.76 78.2336 16.76V17H76.5056V15.488ZM76.5056 4.112V2.6H78.2336L78.2096 2.84C78.2096 2.84 78.1696 2.84 78.0896 2.84C78.0096 2.84 77.9616 2.84 77.9456 2.84C77.5616 2.84 77.2336 2.96 76.9616 3.2C76.7056 3.44 76.5696 3.744 76.5536 4.112H76.5056ZM73.1696 4.112H73.0976C73.0976 3.744 72.9616 3.44 72.6896 3.2C72.4176 2.96 72.0896 2.84 71.7056 2.84C71.7056 2.84 71.6576 2.84 71.5616 2.84C71.4656 2.84 71.4176 2.84 71.4176 2.84V2.6H73.1696V4.112ZM88.1401 2.288C89.4201 2.288 90.5801 2.464 91.6201 2.816C92.6601 3.152 93.5561 3.648 94.3081 4.304C95.0601 4.96 95.6361 5.752 96.0361 6.68C96.4521 7.608 96.6601 8.656 96.6601 9.824C96.6601 10.976 96.4521 12.016 96.0361 12.944C95.6361 13.856 95.0601 14.64 94.3081 15.296C93.5561 15.952 92.6601 16.456 91.6201 16.808C90.5801 17.144 89.4201 17.312 88.1401 17.312C86.8761 17.312 85.7241 17.144 84.6841 16.808C83.6441 16.456 82.7481 15.952 81.9961 15.296C81.2441 14.64 80.6681 13.856 80.2681 12.944C79.8681 12.016 79.6681 10.976 79.6681 9.824C79.6681 8.656 79.8681 7.608 80.2681 6.68C80.6681 5.752 81.2441 4.96 81.9961 4.304C82.7481 3.648 83.6441 3.152 84.6841 2.816C85.7241 2.464 86.8761 2.288 88.1401 2.288ZM88.1401 16.376C89.1161 16.376 89.9641 16.112 90.6841 15.584C91.4201 15.04 91.9801 14.28 92.3641 13.304C92.7641 12.328 92.9641 11.168 92.9641 9.824C92.9641 8.464 92.7641 7.296 92.3641 6.32C91.9801 5.328 91.4201 4.568 90.6841 4.04C89.9641 3.496 89.1161 3.224 88.1401 3.224C87.1801 3.224 86.3401 3.496 85.6201 4.04C84.9001 4.568 84.3401 5.328 83.9401 6.32C83.5401 7.296 83.3401 8.464 83.3401 9.824C83.3401 11.168 83.5401 12.328 83.9401 13.304C84.3401 14.28 84.9001 15.04 85.6201 15.584C86.3401 16.112 87.1801 16.376 88.1401 16.376ZM102.987 2.6H105.579C106.235 2.6 106.875 2.672 107.499 2.816C108.123 2.944 108.683 3.16 109.179 3.464C109.675 3.752 110.067 4.152 110.355 4.664C110.659 5.16 110.811 5.784 110.811 6.536C110.811 7.096 110.691 7.656 110.451 8.216C110.227 8.76 109.867 9.232 109.371 9.632C108.891 10.032 108.259 10.296 107.475 10.424C107.939 10.568 108.379 10.848 108.795 11.264C109.227 11.68 109.563 12.072 109.803 12.44C109.867 12.568 109.979 12.776 110.139 13.064C110.299 13.336 110.499 13.656 110.739 14.024C110.995 14.376 111.259 14.744 111.531 15.128C111.851 15.56 112.131 15.896 112.371 16.136C112.611 16.36 112.859 16.52 113.115 16.616C113.371 16.712 113.667 16.76 114.003 16.76V17H111.987C111.123 17 110.387 16.936 109.779 16.808C109.187 16.68 108.667 16.448 108.219 16.112C107.787 15.76 107.387 15.288 107.019 14.696C106.875 14.488 106.723 14.24 106.563 13.952C106.403 13.648 106.243 13.344 106.083 13.04C105.923 12.736 105.779 12.44 105.651 12.152C105.539 11.864 105.459 11.624 105.411 11.432C105.203 10.92 104.963 10.552 104.691 10.328C104.435 10.088 104.195 9.968 103.971 9.968V9.752C103.971 9.752 104.027 9.752 104.139 9.752C104.251 9.752 104.395 9.752 104.571 9.752C104.907 9.752 105.235 9.696 105.555 9.584C105.891 9.456 106.195 9.224 106.467 8.888C106.739 8.536 106.939 8.024 107.067 7.352C107.099 7.256 107.123 7.12 107.139 6.944C107.171 6.768 107.179 6.568 107.163 6.344C107.131 5.752 107.019 5.28 106.827 4.928C106.651 4.56 106.427 4.288 106.155 4.112C105.883 3.92 105.603 3.792 105.315 3.728C105.043 3.648 104.803 3.608 104.595 3.608C104.291 3.592 104.011 3.592 103.755 3.608C103.515 3.608 103.331 3.6 103.203 3.584C103.187 3.584 103.163 3.504 103.131 3.344C103.099 3.168 103.067 3 103.035 2.84C103.003 2.68 102.987 2.6 102.987 2.6ZM103.227 2.6V17H99.7471V2.6H103.227ZM99.8191 15.488L99.9151 17H98.1871V16.76C98.2031 16.76 98.2431 16.76 98.3071 16.76C98.3871 16.76 98.4431 16.76 98.4751 16.76C98.8271 16.76 99.1231 16.64 99.3631 16.4C99.6191 16.144 99.7551 15.84 99.7711 15.488H99.8191ZM99.8191 4.088H99.7711C99.7551 3.72 99.6191 3.424 99.3631 3.2C99.1231 2.96 98.8351 2.84 98.4991 2.84C98.4511 2.84 98.3871 2.84 98.3071 2.84C98.2431 2.84 98.2031 2.84 98.1871 2.84V2.6H99.9151L99.8191 4.088ZM103.179 15.488H103.227C103.227 15.888 103.363 16.2 103.635 16.424C103.923 16.648 104.227 16.76 104.547 16.76C104.547 16.76 104.579 16.76 104.643 16.76C104.707 16.76 104.755 16.76 104.787 16.76V17H103.059L103.179 15.488ZM118.88 2.6V17H115.424V2.6H118.88ZM124.496 16.04L125.048 17H118.832V16.04H124.496ZM123.68 9.392V10.352H118.832V9.392H123.68ZM124.76 2.6V3.56H118.832V2.6H124.76ZM126.032 12.584L125.12 17H120.968L121.712 16.04C122.4 16.04 123.008 15.904 123.536 15.632C124.08 15.344 124.544 14.944 124.928 14.432C125.312 13.904 125.608 13.288 125.816 12.584H126.032ZM123.68 10.304V12.416H123.44V12.224C123.44 11.696 123.272 11.256 122.936 10.904C122.616 10.552 122.176 10.368 121.616 10.352V10.304H123.68ZM123.68 7.328V9.44H121.616V9.392C122.176 9.376 122.616 9.192 122.936 8.84C123.272 8.472 123.44 8.024 123.44 7.496V7.328H123.68ZM124.76 3.512V6.056H124.52V5.84C124.52 5.136 124.328 4.584 123.944 4.184C123.576 3.784 123.04 3.576 122.336 3.56V3.512H124.76ZM124.76 2.24V2.816L122.24 2.6C122.704 2.6 123.192 2.56 123.704 2.48C124.216 2.384 124.568 2.304 124.76 2.24ZM115.472 15.488L115.592 17H113.816V16.76C113.816 16.76 113.864 16.76 113.96 16.76C114.056 16.76 114.112 16.76 114.128 16.76C114.48 16.76 114.776 16.64 115.016 16.4C115.272 16.144 115.408 15.84 115.424 15.488H115.472ZM115.472 4.112H115.424C115.408 3.744 115.272 3.44 115.016 3.2C114.776 2.96 114.48 2.84 114.128 2.84C114.112 2.84 114.056 2.84 113.96 2.84C113.864 2.84 113.816 2.84 113.816 2.84V2.6H115.592L115.472 4.112ZM132.259 2.288C132.579 2.288 132.963 2.304 133.411 2.336C133.875 2.368 134.331 2.408 134.779 2.456C135.227 2.488 135.619 2.536 135.955 2.6C136.307 2.648 136.547 2.696 136.675 2.744L136.363 5.672H136.147C136.147 4.936 135.891 4.352 135.379 3.92C134.867 3.488 134.131 3.272 133.171 3.272C132.403 3.272 131.779 3.44 131.299 3.776C130.835 4.112 130.587 4.56 130.555 5.12C130.523 5.408 130.571 5.672 130.699 5.912C130.843 6.136 131.035 6.336 131.275 6.512C131.531 6.688 131.811 6.864 132.115 7.04L135.883 9.368C136.523 9.688 137.027 10.152 137.395 10.76C137.763 11.368 137.923 12.104 137.875 12.968C137.827 13.864 137.563 14.64 137.083 15.296C136.619 15.952 135.971 16.456 135.139 16.808C134.323 17.144 133.355 17.312 132.235 17.312C131.547 17.312 130.907 17.256 130.315 17.144C129.723 17.032 129.211 16.88 128.779 16.688C128.363 16.496 128.043 16.28 127.819 16.04C127.691 15.72 127.635 15.336 127.651 14.888C127.667 14.424 127.739 13.968 127.867 13.52C127.995 13.056 128.155 12.672 128.347 12.368H128.539C128.491 13.088 128.619 13.752 128.923 14.36C129.243 14.968 129.707 15.456 130.315 15.824C130.923 16.176 131.651 16.352 132.499 16.352C133.427 16.352 134.123 16.136 134.587 15.704C135.051 15.272 135.283 14.768 135.283 14.192C135.283 13.76 135.139 13.376 134.851 13.04C134.579 12.688 134.123 12.344 133.483 12.008L130.075 9.848C129.275 9.432 128.691 8.88 128.323 8.192C127.971 7.504 127.843 6.752 127.939 5.936C128.019 5.168 128.243 4.512 128.611 3.968C128.995 3.424 129.499 3.008 130.123 2.72C130.747 2.432 131.459 2.288 132.259 2.288ZM136.675 2.504L136.651 2.936H134.083V2.504H136.675ZM150.778 2.6V17H147.322V2.6H150.778ZM156.394 16.04L156.946 17H150.73V16.04H156.394ZM155.578 9.392V10.352H150.73V9.392H155.578ZM156.658 2.6V3.56H150.73V2.6H156.658ZM157.93 12.584L157.018 17H152.866L153.61 16.04C154.298 16.04 154.906 15.904 155.434 15.632C155.978 15.344 156.442 14.944 156.826 14.432C157.21 13.904 157.506 13.288 157.714 12.584H157.93ZM155.578 10.304V12.416H155.338V12.224C155.338 11.696 155.17 11.256 154.834 10.904C154.514 10.552 154.074 10.368 153.514 10.352V10.304H155.578ZM155.578 7.328V9.44H153.514V9.392C154.074 9.376 154.514 9.192 154.834 8.84C155.17 8.472 155.338 8.024 155.338 7.496V7.328H155.578ZM156.658 3.512V6.056H156.418V5.84C156.418 5.136 156.226 4.584 155.842 4.184C155.474 3.784 154.938 3.576 154.234 3.56V3.512H156.658ZM156.658 2.24V2.816L154.138 2.6C154.602 2.6 155.09 2.56 155.602 2.48C156.114 2.384 156.466 2.304 156.658 2.24ZM147.37 15.488L147.49 17H145.714V16.76C145.714 16.76 145.762 16.76 145.858 16.76C145.954 16.76 146.01 16.76 146.026 16.76C146.378 16.76 146.674 16.64 146.914 16.4C147.17 16.144 147.306 15.84 147.322 15.488H147.37ZM147.37 4.112H147.322C147.306 3.744 147.17 3.44 146.914 3.2C146.674 2.96 146.378 2.84 146.026 2.84C146.01 2.84 145.954 2.84 145.858 2.84C145.762 2.84 145.714 2.84 145.714 2.84V2.6H147.49L147.37 4.112ZM173.349 2.6C175.061 2.6 176.533 2.888 177.765 3.464C178.997 4.024 179.941 4.848 180.597 5.936C181.253 7.008 181.581 8.296 181.581 9.8C181.581 11.304 181.253 12.592 180.597 13.664C179.941 14.736 178.997 15.56 177.765 16.136C176.533 16.712 175.061 17 173.349 17H168.021L167.973 16.04C169.189 16.04 170.165 16.04 170.901 16.04C171.653 16.04 172.197 16.04 172.533 16.04C172.885 16.04 173.061 16.04 173.061 16.04C174.565 16.04 175.749 15.488 176.613 14.384C177.477 13.28 177.909 11.752 177.909 9.8C177.909 7.848 177.477 6.32 176.613 5.216C175.749 4.096 174.565 3.536 173.061 3.536C173.061 3.536 172.885 3.536 172.533 3.536C172.181 3.536 171.613 3.536 170.829 3.536C170.045 3.536 169.013 3.536 167.733 3.536V2.6H173.349ZM170.349 2.6V17H166.893V2.6H170.349ZM166.965 15.464V17H165.237V16.76C165.237 16.76 165.285 16.76 165.381 16.76C165.477 16.76 165.533 16.76 165.549 16.76C165.917 16.76 166.229 16.632 166.485 16.376C166.757 16.12 166.893 15.816 166.893 15.464H166.965ZM166.941 4.112H166.893C166.877 3.744 166.733 3.44 166.461 3.2C166.205 2.96 165.893 2.84 165.525 2.84C165.525 2.84 165.477 2.84 165.381 2.84C165.285 2.84 165.237 2.84 165.237 2.84V2.6H166.941V4.112ZM187.997 2.6V17H184.541V2.6H187.997ZM193.613 16.04L194.165 17H187.949V16.04H193.613ZM192.797 9.392V10.352H187.949V9.392H192.797ZM193.877 2.6V3.56H187.949V2.6H193.877ZM195.149 12.584L194.237 17H190.085L190.829 16.04C191.517 16.04 192.125 15.904 192.653 15.632C193.197 15.344 193.661 14.944 194.045 14.432C194.429 13.904 194.725 13.288 194.933 12.584H195.149ZM192.797 10.304V12.416H192.557V12.224C192.557 11.696 192.389 11.256 192.053 10.904C191.733 10.552 191.293 10.368 190.733 10.352V10.304H192.797ZM192.797 7.328V9.44H190.733V9.392C191.293 9.376 191.733 9.192 192.053 8.84C192.389 8.472 192.557 8.024 192.557 7.496V7.328H192.797ZM193.877 3.512V6.056H193.637V5.84C193.637 5.136 193.445 4.584 193.061 4.184C192.693 3.784 192.157 3.576 191.453 3.56V3.512H193.877ZM193.877 2.24V2.816L191.357 2.6C191.821 2.6 192.309 2.56 192.821 2.48C193.333 2.384 193.685 2.304 193.877 2.24ZM184.589 15.488L184.709 17H182.933V16.76C182.933 16.76 182.981 16.76 183.077 16.76C183.173 16.76 183.229 16.76 183.245 16.76C183.597 16.76 183.893 16.64 184.133 16.4C184.389 16.144 184.525 15.84 184.541 15.488H184.589ZM184.589 4.112H184.541C184.525 3.744 184.389 3.44 184.133 3.2C183.893 2.96 183.597 2.84 183.245 2.84C183.229 2.84 183.173 2.84 183.077 2.84C182.981 2.84 182.933 2.84 182.933 2.84V2.6H184.709L184.589 4.112ZM201.376 2.288C201.696 2.288 202.08 2.304 202.528 2.336C202.992 2.368 203.448 2.408 203.896 2.456C204.344 2.488 204.736 2.536 205.072 2.6C205.424 2.648 205.664 2.696 205.792 2.744L205.48 5.672H205.264C205.264 4.936 205.008 4.352 204.496 3.92C203.984 3.488 203.248 3.272 202.288 3.272C201.52 3.272 200.896 3.44 200.416 3.776C199.952 4.112 199.704 4.56 199.672 5.12C199.64 5.408 199.688 5.672 199.816 5.912C199.96 6.136 200.152 6.336 200.392 6.512C200.648 6.688 200.928 6.864 201.232 7.04L205 9.368C205.64 9.688 206.144 10.152 206.512 10.76C206.88 11.368 207.04 12.104 206.992 12.968C206.944 13.864 206.68 14.64 206.2 15.296C205.736 15.952 205.088 16.456 204.256 16.808C203.44 17.144 202.472 17.312 201.352 17.312C200.664 17.312 200.024 17.256 199.432 17.144C198.84 17.032 198.328 16.88 197.896 16.688C197.48 16.496 197.16 16.28 196.936 16.04C196.808 15.72 196.752 15.336 196.768 14.888C196.784 14.424 196.856 13.968 196.984 13.52C197.112 13.056 197.272 12.672 197.464 12.368H197.656C197.608 13.088 197.736 13.752 198.04 14.36C198.36 14.968 198.824 15.456 199.432 15.824C200.04 16.176 200.768 16.352 201.616 16.352C202.544 16.352 203.24 16.136 203.704 15.704C204.168 15.272 204.4 14.768 204.4 14.192C204.4 13.76 204.256 13.376 203.968 13.04C203.696 12.688 203.24 12.344 202.6 12.008L199.192 9.848C198.392 9.432 197.808 8.88 197.44 8.192C197.088 7.504 196.96 6.752 197.056 5.936C197.136 5.168 197.36 4.512 197.728 3.968C198.112 3.424 198.616 3.008 199.24 2.72C199.864 2.432 200.576 2.288 201.376 2.288ZM205.792 2.504L205.768 2.936H203.2V2.504H205.792ZM213.827 2.6V17H210.371V2.6H213.827ZM210.443 15.488V17H208.691V16.76C208.691 16.76 208.739 16.76 208.835 16.76C208.931 16.76 208.987 16.76 209.003 16.76C209.371 16.76 209.691 16.64 209.963 16.4C210.235 16.144 210.371 15.84 210.371 15.488H210.443ZM213.779 15.488H213.827C213.843 15.84 213.979 16.144 214.235 16.4C214.507 16.64 214.835 16.76 215.219 16.76C215.219 16.76 215.259 16.76 215.339 16.76C215.435 16.76 215.491 16.76 215.507 16.76V17H213.779V15.488ZM213.779 4.112V2.6H215.507L215.483 2.84C215.483 2.84 215.443 2.84 215.363 2.84C215.283 2.84 215.235 2.84 215.219 2.84C214.835 2.84 214.507 2.96 214.235 3.2C213.979 3.44 213.843 3.744 213.827 4.112H213.779ZM210.443 4.112H210.371C210.371 3.744 210.235 3.44 209.963 3.2C209.691 2.96 209.363 2.84 208.979 2.84C208.979 2.84 208.931 2.84 208.835 2.84C208.739 2.84 208.691 2.84 208.691 2.84V2.6H210.443V4.112ZM224.982 2.288C225.718 2.288 226.454 2.336 227.19 2.432C227.942 2.512 228.638 2.64 229.278 2.816C229.934 2.976 230.486 3.168 230.934 3.392V7.208H230.742C230.486 6.184 230.102 5.384 229.59 4.808C229.094 4.232 228.518 3.824 227.862 3.584C227.206 3.344 226.494 3.224 225.726 3.224C224.606 3.224 223.662 3.488 222.894 4.016C222.126 4.544 221.542 5.312 221.142 6.32C220.758 7.312 220.566 8.512 220.566 9.92C220.566 11.248 220.742 12.392 221.094 13.352C221.446 14.312 221.966 15.056 222.654 15.584C223.342 16.112 224.174 16.376 225.15 16.376C225.662 16.376 226.15 16.296 226.614 16.136C227.078 15.96 227.486 15.712 227.838 15.392C228.19 15.056 228.438 14.648 228.582 14.168L228.606 11.288C228.606 10.968 228.51 10.728 228.318 10.568C228.142 10.408 227.886 10.328 227.55 10.328H227.214V10.112H233.382V10.328H233.07C232.366 10.328 232.022 10.648 232.038 11.288V14.48C231.702 14.928 231.182 15.368 230.478 15.8C229.774 16.232 228.942 16.592 227.982 16.88C227.022 17.168 225.974 17.312 224.838 17.312C223.238 17.296 221.846 16.992 220.662 16.4C219.478 15.792 218.558 14.928 217.902 13.808C217.246 12.688 216.918 11.344 216.918 9.776C216.918 8.208 217.246 6.872 217.902 5.768C218.558 4.648 219.486 3.792 220.686 3.2C221.886 2.592 223.318 2.288 224.982 2.288ZM235.817 2.264L249.905 14.648L250.145 17.312L236.081 4.928L235.817 2.264ZM235.913 15.536V17H234.137V16.76C234.137 16.76 234.201 16.76 234.329 16.76C234.457 16.76 234.521 16.76 234.521 16.76C234.889 16.76 235.201 16.648 235.457 16.424C235.713 16.184 235.841 15.888 235.841 15.536H235.913ZM239.129 15.536C239.145 15.888 239.281 16.184 239.537 16.424C239.793 16.648 240.097 16.76 240.449 16.76C240.449 16.76 240.513 16.76 240.641 16.76C240.785 16.76 240.857 16.76 240.857 16.76V17H239.081V15.536H239.129ZM235.817 2.264L239.129 5.864V17H235.841V5C235.841 4.184 235.801 3.528 235.721 3.032C235.641 2.52 235.601 2.264 235.601 2.264H235.817ZM250.121 2.6V14.504C250.121 15.064 250.137 15.56 250.169 15.992C250.217 16.408 250.257 16.736 250.289 16.976C250.337 17.2 250.361 17.312 250.361 17.312H250.145L246.833 13.496V2.6H250.121ZM250.049 4.064V2.6H251.849V2.84C251.849 2.84 251.777 2.84 251.633 2.84C251.505 2.84 251.441 2.84 251.441 2.84C251.089 2.84 250.777 2.96 250.505 3.2C250.249 3.424 250.121 3.712 250.121 4.064H250.049ZM246.833 4.064C246.817 3.712 246.681 3.424 246.425 3.2C246.185 2.96 245.881 2.84 245.513 2.84C245.513 2.84 245.441 2.84 245.297 2.84C245.169 2.84 245.105 2.84 245.105 2.84V2.6H246.881V4.064H246.833Z" fill="#99D85C"/>
</svg>
