<svg width="226" height="18" viewBox="0 0 226 18" fill="none" xmlns="http://www.w3.org/2000/svg">
<path d="M5.456 0.199999V17H1.856V0.199999H5.456ZM1.928 15.248V17H0.00800008V16.76C0.00800008 16.76 0.0560001 16.76 0.152 16.76C0.264 16.76 0.32 16.76 0.32 16.76C0.736 16.76 1.088 16.616 1.376 16.328C1.68 16.024 1.84 15.664 1.856 15.248H1.928ZM1.928 1.952H1.856C1.84 1.536 1.68 1.184 1.376 0.896C1.088 0.591999 0.736 0.439999 0.32 0.439999C0.32 0.439999 0.264 0.439999 0.152 0.439999C0.0560001 0.439999 0.00800008 0.439999 0.00800008 0.439999V0.199999H1.928V1.952ZM5.384 15.248H5.456C5.472 15.664 5.624 16.024 5.912 16.328C6.216 16.616 6.576 16.76 6.992 16.76C6.992 16.76 7.04 16.76 7.136 16.76C7.232 16.76 7.288 16.76 7.304 16.76V17H5.384V15.248ZM5.384 1.952V0.199999H7.304V0.439999C7.288 0.439999 7.232 0.439999 7.136 0.439999C7.04 0.439999 6.992 0.439999 6.992 0.439999C6.576 0.439999 6.216 0.591999 5.912 0.896C5.624 1.184 5.472 1.536 5.456 1.952H5.384ZM10.2543 2.264L24.3423 14.648L24.5823 17.312L10.5183 4.928L10.2543 2.264ZM10.3503 15.536V17H8.57431V16.76C8.57431 16.76 8.63831 16.76 8.76631 16.76C8.89431 16.76 8.95831 16.76 8.95831 16.76C9.32631 16.76 9.63831 16.648 9.89431 16.424C10.1503 16.184 10.2783 15.888 10.2783 15.536H10.3503ZM13.5663 15.536C13.5823 15.888 13.7183 16.184 13.9743 16.424C14.2303 16.648 14.5343 16.76 14.8863 16.76C14.8863 16.76 14.9503 16.76 15.0783 16.76C15.2223 16.76 15.2943 16.76 15.2943 16.76V17H13.5183V15.536H13.5663ZM10.2543 2.264L13.5663 5.864V17H10.2783V5C10.2783 4.184 10.2383 3.528 10.1583 3.032C10.0783 2.52 10.0383 2.264 10.0383 2.264H10.2543ZM24.5583 2.6V14.504C24.5583 15.064 24.5743 15.56 24.6063 15.992C24.6543 16.408 24.6943 16.736 24.7263 16.976C24.7743 17.2 24.7983 17.312 24.7983 17.312H24.5823L21.2703 13.496V2.6H24.5583ZM24.4863 4.064V2.6H26.2863V2.84C26.2863 2.84 26.2143 2.84 26.0703 2.84C25.9423 2.84 25.8783 2.84 25.8783 2.84C25.5263 2.84 25.2143 2.96 24.9423 3.2C24.6863 3.424 24.5583 3.712 24.5583 4.064H24.4863ZM21.2703 4.064C21.2543 3.712 21.1183 3.424 20.8623 3.2C20.6223 2.96 20.3183 2.84 19.9503 2.84C19.9503 2.84 19.8783 2.84 19.7343 2.84C19.6063 2.84 19.5423 2.84 19.5423 2.84V2.6H21.3183V4.064H21.2703ZM35.7014 2.672V17H32.2214V2.672H35.7014ZM40.9334 2.576V3.536H27.0134V2.576H40.9334ZM40.9334 3.464V6.008H40.6694V5.792C40.6854 5.104 40.4934 4.56 40.0934 4.16C39.7094 3.76 39.1734 3.552 38.4854 3.536V3.464H40.9334ZM40.9334 2.216V2.816L38.3894 2.576C38.6934 2.576 39.0214 2.56 39.3734 2.528C39.7254 2.48 40.0454 2.432 40.3334 2.384C40.6214 2.32 40.8214 2.264 40.9334 2.216ZM32.2694 15.488V17H30.6614V16.76C30.6614 16.76 30.7014 16.76 30.7814 16.76C30.8774 16.76 30.9254 16.76 30.9254 16.76C31.2774 16.76 31.5734 16.64 31.8134 16.4C32.0694 16.144 32.2054 15.84 32.2214 15.488H32.2694ZM35.6294 15.488H35.7014C35.7014 15.84 35.8294 16.144 36.0854 16.4C36.3414 16.64 36.6534 16.76 37.0214 16.76C37.0214 16.76 37.0614 16.76 37.1414 16.76C37.2374 16.76 37.2854 16.76 37.2854 16.76V17H35.6294V15.488ZM29.4614 3.464V3.536C28.7574 3.552 28.2134 3.76 27.8294 4.16C27.4614 4.56 27.2774 5.104 27.2774 5.792V6.008H27.0134V3.464H29.4614ZM27.0134 2.216C27.1574 2.248 27.3654 2.296 27.6374 2.36C27.9254 2.424 28.2374 2.48 28.5734 2.528C28.9254 2.56 29.2454 2.576 29.5334 2.576L27.0134 2.816V2.216ZM47.2316 2.6V17H43.7756V2.6H47.2316ZM52.8476 16.04L53.3996 17H47.1836V16.04H52.8476ZM52.0316 9.392V10.352H47.1836V9.392H52.0316ZM53.1116 2.6V3.56H47.1836V2.6H53.1116ZM54.3836 12.584L53.4716 17H49.3196L50.0636 16.04C50.7516 16.04 51.3596 15.904 51.8876 15.632C52.4316 15.344 52.8956 14.944 53.2796 14.432C53.6636 13.904 53.9596 13.288 54.1676 12.584H54.3836ZM52.0316 10.304V12.416H51.7916V12.224C51.7916 11.696 51.6236 11.256 51.2876 10.904C50.9676 10.552 50.5276 10.368 49.9676 10.352V10.304H52.0316ZM52.0316 7.328V9.44H49.9676V9.392C50.5276 9.376 50.9676 9.192 51.2876 8.84C51.6236 8.472 51.7916 8.024 51.7916 7.496V7.328H52.0316ZM53.1116 3.512V6.056H52.8716V5.84C52.8716 5.136 52.6796 4.584 52.2956 4.184C51.9276 3.784 51.3916 3.576 50.6876 3.56V3.512H53.1116ZM53.1116 2.24V2.816L50.5916 2.6C51.0556 2.6 51.5436 2.56 52.0556 2.48C52.5676 2.384 52.9196 2.304 53.1116 2.24ZM43.8236 15.488L43.9436 17H42.1676V16.76C42.1676 16.76 42.2156 16.76 42.3116 16.76C42.4076 16.76 42.4636 16.76 42.4796 16.76C42.8316 16.76 43.1276 16.64 43.3676 16.4C43.6236 16.144 43.7596 15.84 43.7756 15.488H43.8236ZM43.8236 4.112H43.7756C43.7596 3.744 43.6236 3.44 43.3676 3.2C43.1276 2.96 42.8316 2.84 42.4796 2.84C42.4636 2.84 42.4076 2.84 42.3116 2.84C42.2156 2.84 42.1676 2.84 42.1676 2.84V2.6H43.9436L43.8236 4.112ZM60.5887 2.6H63.1807C63.8367 2.6 64.4767 2.672 65.1007 2.816C65.7247 2.944 66.2847 3.16 66.7807 3.464C67.2767 3.752 67.6687 4.152 67.9567 4.664C68.2607 5.16 68.4127 5.784 68.4127 6.536C68.4127 7.096 68.2927 7.656 68.0527 8.216C67.8287 8.76 67.4687 9.232 66.9727 9.632C66.4927 10.032 65.8607 10.296 65.0767 10.424C65.5407 10.568 65.9807 10.848 66.3967 11.264C66.8287 11.68 67.1647 12.072 67.4047 12.44C67.4687 12.568 67.5807 12.776 67.7407 13.064C67.9007 13.336 68.1007 13.656 68.3407 14.024C68.5967 14.376 68.8607 14.744 69.1327 15.128C69.4527 15.56 69.7327 15.896 69.9727 16.136C70.2127 16.36 70.4607 16.52 70.7167 16.616C70.9727 16.712 71.2687 16.76 71.6047 16.76V17H69.5887C68.7247 17 67.9887 16.936 67.3807 16.808C66.7887 16.68 66.2687 16.448 65.8207 16.112C65.3887 15.76 64.9887 15.288 64.6207 14.696C64.4767 14.488 64.3247 14.24 64.1647 13.952C64.0047 13.648 63.8447 13.344 63.6847 13.04C63.5247 12.736 63.3807 12.44 63.2527 12.152C63.1407 11.864 63.0607 11.624 63.0127 11.432C62.8047 10.92 62.5647 10.552 62.2927 10.328C62.0367 10.088 61.7967 9.968 61.5727 9.968V9.752C61.5727 9.752 61.6287 9.752 61.7407 9.752C61.8527 9.752 61.9967 9.752 62.1727 9.752C62.5087 9.752 62.8367 9.696 63.1567 9.584C63.4927 9.456 63.7967 9.224 64.0687 8.888C64.3407 8.536 64.5407 8.024 64.6687 7.352C64.7007 7.256 64.7247 7.12 64.7407 6.944C64.7727 6.768 64.7807 6.568 64.7647 6.344C64.7327 5.752 64.6207 5.28 64.4287 4.928C64.2527 4.56 64.0287 4.288 63.7567 4.112C63.4847 3.92 63.2047 3.792 62.9167 3.728C62.6447 3.648 62.4047 3.608 62.1967 3.608C61.8927 3.592 61.6127 3.592 61.3567 3.608C61.1167 3.608 60.9327 3.6 60.8047 3.584C60.7887 3.584 60.7647 3.504 60.7327 3.344C60.7007 3.168 60.6687 3 60.6367 2.84C60.6047 2.68 60.5887 2.6 60.5887 2.6ZM60.8287 2.6V17H57.3487V2.6H60.8287ZM57.4207 15.488L57.5167 17H55.7887V16.76C55.8047 16.76 55.8447 16.76 55.9087 16.76C55.9887 16.76 56.0447 16.76 56.0767 16.76C56.4287 16.76 56.7247 16.64 56.9647 16.4C57.2207 16.144 57.3567 15.84 57.3727 15.488H57.4207ZM57.4207 4.088H57.3727C57.3567 3.72 57.2207 3.424 56.9647 3.2C56.7247 2.96 56.4367 2.84 56.1007 2.84C56.0527 2.84 55.9887 2.84 55.9087 2.84C55.8447 2.84 55.8047 2.84 55.7887 2.84V2.6H57.5167L57.4207 4.088ZM60.7807 15.488H60.8287C60.8287 15.888 60.9647 16.2 61.2367 16.424C61.5247 16.648 61.8287 16.76 62.1487 16.76C62.1487 16.76 62.1807 16.76 62.2447 16.76C62.3087 16.76 62.3567 16.76 62.3887 16.76V17H60.6607L60.7807 15.488ZM76.5536 2.6V17H73.0976V2.6H76.5536ZM73.1696 15.488V17H71.4176V16.76C71.4176 16.76 71.4656 16.76 71.5616 16.76C71.6576 16.76 71.7136 16.76 71.7296 16.76C72.0976 16.76 72.4176 16.64 72.6896 16.4C72.9616 16.144 73.0976 15.84 73.0976 15.488H73.1696ZM76.5056 15.488H76.5536C76.5696 15.84 76.7056 16.144 76.9616 16.4C77.2336 16.64 77.5616 16.76 77.9456 16.76C77.9456 16.76 77.9856 16.76 78.0656 16.76C78.1616 16.76 78.2176 16.76 78.2336 16.76V17H76.5056V15.488ZM76.5056 4.112V2.6H78.2336L78.2096 2.84C78.2096 2.84 78.1696 2.84 78.0896 2.84C78.0096 2.84 77.9616 2.84 77.9456 2.84C77.5616 2.84 77.2336 2.96 76.9616 3.2C76.7056 3.44 76.5696 3.744 76.5536 4.112H76.5056ZM73.1696 4.112H73.0976C73.0976 3.744 72.9616 3.44 72.6896 3.2C72.4176 2.96 72.0896 2.84 71.7056 2.84C71.7056 2.84 71.6576 2.84 71.5616 2.84C71.4656 2.84 71.4176 2.84 71.4176 2.84V2.6H73.1696V4.112ZM88.1401 2.288C89.4201 2.288 90.5801 2.464 91.6201 2.816C92.6601 3.152 93.5561 3.648 94.3081 4.304C95.0601 4.96 95.6361 5.752 96.0361 6.68C96.4521 7.608 96.6601 8.656 96.6601 9.824C96.6601 10.976 96.4521 12.016 96.0361 12.944C95.6361 13.856 95.0601 14.64 94.3081 15.296C93.5561 15.952 92.6601 16.456 91.6201 16.808C90.5801 17.144 89.4201 17.312 88.1401 17.312C86.8761 17.312 85.7241 17.144 84.6841 16.808C83.6441 16.456 82.7481 15.952 81.9961 15.296C81.2441 14.64 80.6681 13.856 80.2681 12.944C79.8681 12.016 79.6681 10.976 79.6681 9.824C79.6681 8.656 79.8681 7.608 80.2681 6.68C80.6681 5.752 81.2441 4.96 81.9961 4.304C82.7481 3.648 83.6441 3.152 84.6841 2.816C85.7241 2.464 86.8761 2.288 88.1401 2.288ZM88.1401 16.376C89.1161 16.376 89.9641 16.112 90.6841 15.584C91.4201 15.04 91.9801 14.28 92.3641 13.304C92.7641 12.328 92.9641 11.168 92.9641 9.824C92.9641 8.464 92.7641 7.296 92.3641 6.32C91.9801 5.328 91.4201 4.568 90.6841 4.04C89.9641 3.496 89.1161 3.224 88.1401 3.224C87.1801 3.224 86.3401 3.496 85.6201 4.04C84.9001 4.568 84.3401 5.328 83.9401 6.32C83.5401 7.296 83.3401 8.464 83.3401 9.824C83.3401 11.168 83.5401 12.328 83.9401 13.304C84.3401 14.28 84.9001 15.04 85.6201 15.584C86.3401 16.112 87.1801 16.376 88.1401 16.376ZM102.987 2.6H105.579C106.235 2.6 106.875 2.672 107.499 2.816C108.123 2.944 108.683 3.16 109.179 3.464C109.675 3.752 110.067 4.152 110.355 4.664C110.659 5.16 110.811 5.784 110.811 6.536C110.811 7.096 110.691 7.656 110.451 8.216C110.227 8.76 109.867 9.232 109.371 9.632C108.891 10.032 108.259 10.296 107.475 10.424C107.939 10.568 108.379 10.848 108.795 11.264C109.227 11.68 109.563 12.072 109.803 12.44C109.867 12.568 109.979 12.776 110.139 13.064C110.299 13.336 110.499 13.656 110.739 14.024C110.995 14.376 111.259 14.744 111.531 15.128C111.851 15.56 112.131 15.896 112.371 16.136C112.611 16.36 112.859 16.52 113.115 16.616C113.371 16.712 113.667 16.76 114.003 16.76V17H111.987C111.123 17 110.387 16.936 109.779 16.808C109.187 16.68 108.667 16.448 108.219 16.112C107.787 15.76 107.387 15.288 107.019 14.696C106.875 14.488 106.723 14.24 106.563 13.952C106.403 13.648 106.243 13.344 106.083 13.04C105.923 12.736 105.779 12.44 105.651 12.152C105.539 11.864 105.459 11.624 105.411 11.432C105.203 10.92 104.963 10.552 104.691 10.328C104.435 10.088 104.195 9.968 103.971 9.968V9.752C103.971 9.752 104.027 9.752 104.139 9.752C104.251 9.752 104.395 9.752 104.571 9.752C104.907 9.752 105.235 9.696 105.555 9.584C105.891 9.456 106.195 9.224 106.467 8.888C106.739 8.536 106.939 8.024 107.067 7.352C107.099 7.256 107.123 7.12 107.139 6.944C107.171 6.768 107.179 6.568 107.163 6.344C107.131 5.752 107.019 5.28 106.827 4.928C106.651 4.56 106.427 4.288 106.155 4.112C105.883 3.92 105.603 3.792 105.315 3.728C105.043 3.648 104.803 3.608 104.595 3.608C104.291 3.592 104.011 3.592 103.755 3.608C103.515 3.608 103.331 3.6 103.203 3.584C103.187 3.584 103.163 3.504 103.131 3.344C103.099 3.168 103.067 3 103.035 2.84C103.003 2.68 102.987 2.6 102.987 2.6ZM103.227 2.6V17H99.7471V2.6H103.227ZM99.8191 15.488L99.9151 17H98.1871V16.76C98.2031 16.76 98.2431 16.76 98.3071 16.76C98.3871 16.76 98.4431 16.76 98.4751 16.76C98.8271 16.76 99.1231 16.64 99.3631 16.4C99.6191 16.144 99.7551 15.84 99.7711 15.488H99.8191ZM99.8191 4.088H99.7711C99.7551 3.72 99.6191 3.424 99.3631 3.2C99.1231 2.96 98.8351 2.84 98.4991 2.84C98.4511 2.84 98.3871 2.84 98.3071 2.84C98.2431 2.84 98.2031 2.84 98.1871 2.84V2.6H99.9151L99.8191 4.088ZM103.179 15.488H103.227C103.227 15.888 103.363 16.2 103.635 16.424C103.923 16.648 104.227 16.76 104.547 16.76C104.547 16.76 104.579 16.76 104.643 16.76C104.707 16.76 104.755 16.76 104.787 16.76V17H103.059L103.179 15.488ZM124.88 2.6V17H121.424V2.6H124.88ZM130.496 16.04L131.048 17H124.832V16.04H130.496ZM129.68 9.392V10.352H124.832V9.392H129.68ZM130.76 2.6V3.56H124.832V2.6H130.76ZM132.032 12.584L131.12 17H126.968L127.712 16.04C128.4 16.04 129.008 15.904 129.536 15.632C130.08 15.344 130.544 14.944 130.928 14.432C131.312 13.904 131.608 13.288 131.816 12.584H132.032ZM129.68 10.304V12.416H129.44V12.224C129.44 11.696 129.272 11.256 128.936 10.904C128.616 10.552 128.176 10.368 127.616 10.352V10.304H129.68ZM129.68 7.328V9.44H127.616V9.392C128.176 9.376 128.616 9.192 128.936 8.84C129.272 8.472 129.44 8.024 129.44 7.496V7.328H129.68ZM130.76 3.512V6.056H130.52V5.84C130.52 5.136 130.328 4.584 129.944 4.184C129.576 3.784 129.04 3.576 128.336 3.56V3.512H130.76ZM130.76 2.24V2.816L128.24 2.6C128.704 2.6 129.192 2.56 129.704 2.48C130.216 2.384 130.568 2.304 130.76 2.24ZM121.472 15.488L121.592 17H119.816V16.76C119.816 16.76 119.864 16.76 119.96 16.76C120.056 16.76 120.112 16.76 120.128 16.76C120.48 16.76 120.776 16.64 121.016 16.4C121.272 16.144 121.408 15.84 121.424 15.488H121.472ZM121.472 4.112H121.424C121.408 3.744 121.272 3.44 121.016 3.2C120.776 2.96 120.48 2.84 120.128 2.84C120.112 2.84 120.056 2.84 119.96 2.84C119.864 2.84 119.816 2.84 119.816 2.84V2.6H121.592L121.472 4.112ZM147.451 2.6C149.163 2.6 150.635 2.888 151.867 3.464C153.099 4.024 154.043 4.848 154.699 5.936C155.355 7.008 155.683 8.296 155.683 9.8C155.683 11.304 155.355 12.592 154.699 13.664C154.043 14.736 153.099 15.56 151.867 16.136C150.635 16.712 149.163 17 147.451 17H142.123L142.075 16.04C143.291 16.04 144.267 16.04 145.003 16.04C145.755 16.04 146.299 16.04 146.635 16.04C146.987 16.04 147.163 16.04 147.163 16.04C148.667 16.04 149.851 15.488 150.715 14.384C151.579 13.28 152.011 11.752 152.011 9.8C152.011 7.848 151.579 6.32 150.715 5.216C149.851 4.096 148.667 3.536 147.163 3.536C147.163 3.536 146.987 3.536 146.635 3.536C146.283 3.536 145.715 3.536 144.931 3.536C144.147 3.536 143.115 3.536 141.835 3.536V2.6H147.451ZM144.451 2.6V17H140.995V2.6H144.451ZM141.067 15.464V17H139.339V16.76C139.339 16.76 139.387 16.76 139.483 16.76C139.579 16.76 139.635 16.76 139.651 16.76C140.019 16.76 140.331 16.632 140.587 16.376C140.859 16.12 140.995 15.816 140.995 15.464H141.067ZM141.043 4.112H140.995C140.979 3.744 140.835 3.44 140.563 3.2C140.307 2.96 139.995 2.84 139.627 2.84C139.627 2.84 139.579 2.84 139.483 2.84C139.387 2.84 139.339 2.84 139.339 2.84V2.6H141.043V4.112ZM162.099 2.6V17H158.643V2.6H162.099ZM167.715 16.04L168.267 17H162.051V16.04H167.715ZM166.899 9.392V10.352H162.051V9.392H166.899ZM167.979 2.6V3.56H162.051V2.6H167.979ZM169.251 12.584L168.339 17H164.187L164.931 16.04C165.619 16.04 166.227 15.904 166.755 15.632C167.299 15.344 167.763 14.944 168.147 14.432C168.531 13.904 168.827 13.288 169.035 12.584H169.251ZM166.899 10.304V12.416H166.659V12.224C166.659 11.696 166.491 11.256 166.155 10.904C165.835 10.552 165.395 10.368 164.835 10.352V10.304H166.899ZM166.899 7.328V9.44H164.835V9.392C165.395 9.376 165.835 9.192 166.155 8.84C166.491 8.472 166.659 8.024 166.659 7.496V7.328H166.899ZM167.979 3.512V6.056H167.739V5.84C167.739 5.136 167.547 4.584 167.163 4.184C166.795 3.784 166.259 3.576 165.555 3.56V3.512H167.979ZM167.979 2.24V2.816L165.459 2.6C165.923 2.6 166.411 2.56 166.923 2.48C167.435 2.384 167.787 2.304 167.979 2.24ZM158.691 15.488L158.811 17H157.035V16.76C157.035 16.76 157.083 16.76 157.179 16.76C157.275 16.76 157.331 16.76 157.347 16.76C157.699 16.76 157.995 16.64 158.235 16.4C158.491 16.144 158.627 15.84 158.643 15.488H158.691ZM158.691 4.112H158.643C158.627 3.744 158.491 3.44 158.235 3.2C157.995 2.96 157.699 2.84 157.347 2.84C157.331 2.84 157.275 2.84 157.179 2.84C157.083 2.84 157.035 2.84 157.035 2.84V2.6H158.811L158.691 4.112ZM175.478 2.288C175.798 2.288 176.182 2.304 176.63 2.336C177.094 2.368 177.55 2.408 177.998 2.456C178.446 2.488 178.838 2.536 179.174 2.6C179.526 2.648 179.766 2.696 179.894 2.744L179.582 5.672H179.366C179.366 4.936 179.11 4.352 178.598 3.92C178.086 3.488 177.35 3.272 176.39 3.272C175.622 3.272 174.998 3.44 174.518 3.776C174.054 4.112 173.806 4.56 173.774 5.12C173.742 5.408 173.79 5.672 173.918 5.912C174.062 6.136 174.254 6.336 174.494 6.512C174.75 6.688 175.03 6.864 175.334 7.04L179.102 9.368C179.742 9.688 180.246 10.152 180.614 10.76C180.982 11.368 181.142 12.104 181.094 12.968C181.046 13.864 180.782 14.64 180.302 15.296C179.838 15.952 179.19 16.456 178.358 16.808C177.542 17.144 176.574 17.312 175.454 17.312C174.766 17.312 174.126 17.256 173.534 17.144C172.942 17.032 172.43 16.88 171.998 16.688C171.582 16.496 171.262 16.28 171.038 16.04C170.91 15.72 170.854 15.336 170.87 14.888C170.886 14.424 170.958 13.968 171.086 13.52C171.214 13.056 171.374 12.672 171.566 12.368H171.758C171.71 13.088 171.838 13.752 172.142 14.36C172.462 14.968 172.926 15.456 173.534 15.824C174.142 16.176 174.87 16.352 175.718 16.352C176.646 16.352 177.342 16.136 177.806 15.704C178.27 15.272 178.502 14.768 178.502 14.192C178.502 13.76 178.358 13.376 178.07 13.04C177.798 12.688 177.342 12.344 176.702 12.008L173.294 9.848C172.494 9.432 171.91 8.88 171.542 8.192C171.19 7.504 171.062 6.752 171.158 5.936C171.238 5.168 171.462 4.512 171.83 3.968C172.214 3.424 172.718 3.008 173.342 2.72C173.966 2.432 174.678 2.288 175.478 2.288ZM179.894 2.504L179.87 2.936H177.302V2.504H179.894ZM187.929 2.6V17H184.473V2.6H187.929ZM184.545 15.488V17H182.793V16.76C182.793 16.76 182.841 16.76 182.937 16.76C183.033 16.76 183.089 16.76 183.105 16.76C183.473 16.76 183.793 16.64 184.065 16.4C184.337 16.144 184.473 15.84 184.473 15.488H184.545ZM187.881 15.488H187.929C187.945 15.84 188.081 16.144 188.337 16.4C188.609 16.64 188.937 16.76 189.321 16.76C189.321 16.76 189.361 16.76 189.441 16.76C189.537 16.76 189.593 16.76 189.609 16.76V17H187.881V15.488ZM187.881 4.112V2.6H189.609L189.585 2.84C189.585 2.84 189.545 2.84 189.465 2.84C189.385 2.84 189.337 2.84 189.321 2.84C188.937 2.84 188.609 2.96 188.337 3.2C188.081 3.44 187.945 3.744 187.929 4.112H187.881ZM184.545 4.112H184.473C184.473 3.744 184.337 3.44 184.065 3.2C183.793 2.96 183.465 2.84 183.081 2.84C183.081 2.84 183.033 2.84 182.937 2.84C182.841 2.84 182.793 2.84 182.793 2.84V2.6H184.545V4.112ZM199.083 2.288C199.819 2.288 200.555 2.336 201.291 2.432C202.043 2.512 202.739 2.64 203.379 2.816C204.035 2.976 204.587 3.168 205.035 3.392V7.208H204.843C204.587 6.184 204.203 5.384 203.691 4.808C203.195 4.232 202.619 3.824 201.963 3.584C201.307 3.344 200.595 3.224 199.827 3.224C198.707 3.224 197.763 3.488 196.995 4.016C196.227 4.544 195.643 5.312 195.243 6.32C194.859 7.312 194.667 8.512 194.667 9.92C194.667 11.248 194.843 12.392 195.195 13.352C195.547 14.312 196.067 15.056 196.755 15.584C197.443 16.112 198.275 16.376 199.251 16.376C199.763 16.376 200.251 16.296 200.715 16.136C201.179 15.96 201.587 15.712 201.939 15.392C202.291 15.056 202.539 14.648 202.683 14.168L202.707 11.288C202.707 10.968 202.611 10.728 202.419 10.568C202.243 10.408 201.987 10.328 201.651 10.328H201.315V10.112H207.483V10.328H207.171C206.467 10.328 206.123 10.648 206.139 11.288V14.48C205.803 14.928 205.283 15.368 204.579 15.8C203.875 16.232 203.043 16.592 202.083 16.88C201.123 17.168 200.075 17.312 198.939 17.312C197.339 17.296 195.947 16.992 194.763 16.4C193.579 15.792 192.659 14.928 192.003 13.808C191.347 12.688 191.019 11.344 191.019 9.776C191.019 8.208 191.347 6.872 192.003 5.768C192.659 4.648 193.587 3.792 194.787 3.2C195.987 2.592 197.419 2.288 199.083 2.288ZM209.918 2.264L224.006 14.648L224.246 17.312L210.182 4.928L209.918 2.264ZM210.014 15.536V17H208.238V16.76C208.238 16.76 208.302 16.76 208.43 16.76C208.558 16.76 208.622 16.76 208.622 16.76C208.99 16.76 209.302 16.648 209.558 16.424C209.814 16.184 209.942 15.888 209.942 15.536H210.014ZM213.23 15.536C213.246 15.888 213.382 16.184 213.638 16.424C213.894 16.648 214.198 16.76 214.55 16.76C214.55 16.76 214.614 16.76 214.742 16.76C214.886 16.76 214.958 16.76 214.958 16.76V17H213.182V15.536H213.23ZM209.918 2.264L213.23 5.864V17H209.942V5C209.942 4.184 209.902 3.528 209.822 3.032C209.742 2.52 209.702 2.264 209.702 2.264H209.918ZM224.222 2.6V14.504C224.222 15.064 224.238 15.56 224.27 15.992C224.318 16.408 224.358 16.736 224.39 16.976C224.438 17.2 224.462 17.312 224.462 17.312H224.246L220.934 13.496V2.6H224.222ZM224.15 4.064V2.6H225.95V2.84C225.95 2.84 225.878 2.84 225.734 2.84C225.606 2.84 225.542 2.84 225.542 2.84C225.19 2.84 224.878 2.96 224.606 3.2C224.35 3.424 224.222 3.712 224.222 4.064H224.15ZM220.934 4.064C220.918 3.712 220.782 3.424 220.526 3.2C220.286 2.96 219.982 2.84 219.614 2.84C219.614 2.84 219.542 2.84 219.398 2.84C219.27 2.84 219.206 2.84 219.206 2.84V2.6H220.982V4.064H220.934Z" fill="#99D85C"/>
</svg>
